<svg xmlns="http://www.w3.org/2000/svg" viewBox="0 0 512 512">
  <rect width="512" height="512" rx="96" fill="#18181b"/>
  <!-- outer flame -->
  <path d="M256 460 C190 435 148 380 155 310 C160 265 185 235 205 205 C198 240 218 262 228 245 C242 218 265 178 252 128 C295 158 335 215 318 278 C332 258 338 232 326 205 C360 238 375 300 355 348 C372 330 378 305 368 278 C400 318 405 385 370 420 C340 448 298 462 256 460Z" fill="#f59e0b"/>
  <!-- inner flame highlight -->
  <path d="M256 430 C220 410 200 372 210 330 C218 305 234 288 246 268 C242 290 255 305 262 292 C278 265 285 308 278 340 C295 320 298 365 278 392 C270 405 262 420 256 430Z" fill="#fef08a"/>
</svg>
